<svg xmlns="http://www.w3.org/2000/svg" aria-hidden="true" style="width: 0; height: 0; position: absolute;"><symbol id="advantage-antenna" viewBox="0 0 32 32">
<title>feature-antenna</title>
<path fill="#212121" d="M30.773 22.098l-8.443-8.505 0.937-4.616c0.225 0.090 0.485 0.144 0.758 0.146h0.007c0.008 0 0.017 0 0.026 0 1.192 0 2.159-0.967 2.159-2.159s-0.967-2.159-2.159-2.159c-1.192 0-2.159 0.967-2.159 2.159 0 0.259 0.046 0.508 0.13 0.739l-0.005-0.015-4.96 0.606-8.091-8.133c-0.096-0.098-0.229-0.159-0.376-0.16h-0c-0.14 0.001-0.274 0.057-0.373 0.155l-1.512 1.504c-0.096 0.097-0.156 0.23-0.156 0.377s0.060 0.281 0.156 0.377v0l0.814 0.825c-1.143 2.062-1.816 4.522-1.816 7.139 0 4.106 1.656 7.824 4.336 10.525l-0.001-0.001c0.043 0.041 0.092 0.074 0.146 0.097-0.032 0.164-0.051 0.353-0.052 0.546v6.188h-6.4c-1.472 0.001-2.666 1.194-2.667 2.666v1.067c0 0.295 0.239 0.534 0.534 0.534h24.534c0.294 0 0.533-0.239 0.533-0.534v-1.067c-0.002-1.472-1.195-2.665-2.666-2.666h-6.4v-2.742c1.003 0.21 2.024 0.317 3.049 0.32 2.58-0.003 5.005-0.663 7.117-1.822l-0.077 0.039 0.818 0.823c0.099 0.101 0.235 0.159 0.376 0.16 0.14-0.001 0.274-0.057 0.373-0.155l1.512-1.504c0.096-0.097 0.156-0.23 0.156-0.377s-0.060-0.281-0.156-0.377v0zM23.28 6.233c0.193-0.192 0.459-0.31 0.752-0.31 0.589 0 1.067 0.478 1.067 1.066s-0.477 1.066-1.067 1.066c-0 0-0 0-0 0h-0.004c-0.587-0.003-1.061-0.479-1.061-1.066 0-0.295 0.12-0.563 0.314-0.756l0-0h-0.002zM22.024 9.737l-0.598 2.946-1.175-1.183 1.774-1.763zM21.419 8.835l-1.92 1.909-1.486-1.493 3.406-0.416zM24.004 28.8c0.884 0 1.6 0.716 1.6 1.6v0 0.534h-23.466v-0.534c0-0.884 0.716-1.6 1.6-1.6v0h20.267zM16.538 26.666v1.067h-5.334v-1.067h5.334zM11.204 25.6v-4.053c0-1.294 1.196-2.346 2.667-2.346s2.667 1.053 2.667 2.346v4.053h-5.334zM17.604 23.904v-2.357c0-1.882-1.675-3.413-3.733-3.413-0.017-0-0.038-0-0.058-0-1.353 0-2.54 0.707-3.213 1.771l-0.009 0.016c-2.36-2.482-3.812-5.846-3.812-9.55 0-2.314 0.567-4.496 1.569-6.414l-0.036 0.077 18.602 18.709c-1.823 0.947-3.979 1.502-6.266 1.502-1.079 0-2.128-0.124-3.136-0.357l0.093 0.018zM28.893 23.22l-21.057-21.181 0.754-0.752 7.935 7.98c0.004 0 0.006 0.007 0.010 0.010l13.114 13.191-0.757 0.752z"></path>
<path fill="#2196f3" d="M13.876 20.267h-0.005c-0.001 0-0.002 0-0.002 0-0.884 0-1.6 0.716-1.6 1.6s0.715 1.599 1.597 1.6h0.005c0.001 0 0.001 0 0.002 0 0.884 0 1.6-0.716 1.6-1.6s-0.715-1.599-1.598-1.6h-0zM14.249 22.245c-0.096 0.096-0.229 0.155-0.376 0.155-0.295 0-0.534-0.239-0.534-0.534s0.238-0.533 0.532-0.533h0c0.293 0.001 0.531 0.239 0.531 0.533 0 0.148-0.060 0.282-0.157 0.378l-0 0h0.005z"></path>
</symbol><symbol id="advantage-astronaut" viewBox="0 0 32 32">
<title>feature-astronaut</title>
<path fill="#2196f3" d="M31.974 4.524c-0.064-0.191-0.227-0.332-0.427-0.362l-0.003-0-1.911-0.278-0.855-1.731c-0.179-0.365-0.777-0.365-0.956 0l-0.855 1.731-1.911 0.278c-0.26 0.039-0.457 0.26-0.457 0.528 0 0.15 0.062 0.285 0.161 0.382l1.383 1.348-0.326 1.903c-0.034 0.2 0.048 0.402 0.212 0.522 0.166 0.12 0.383 0.135 0.562 0.040l1.709-0.899 1.709 0.899c0.072 0.038 0.157 0.061 0.247 0.061 0.295 0 0.534-0.239 0.534-0.534 0-0.031-0.003-0.062-0.008-0.092l0 0.003-0.326-1.903 1.383-1.348c0.099-0.097 0.161-0.233 0.161-0.382 0-0.059-0.009-0.115-0.027-0.168l0.001 0.004zM29.511 5.851c-0.126 0.122-0.183 0.299-0.153 0.472l0.191 1.114-1-0.526c-0.072-0.039-0.158-0.062-0.249-0.062s-0.177 0.023-0.252 0.063l0.003-0.001-1 0.526 0.191-1.114c0.005-0.027 0.008-0.059 0.008-0.091 0-0.149-0.061-0.285-0.16-0.381l-0-0-0.811-0.79 1.119-0.162c0.174-0.025 0.324-0.134 0.402-0.292l0.5-1.013 0.5 1.013c0.078 0.158 0.228 0.267 0.402 0.292l1.119 0.162-0.809 0.79zM26.134 20.522h-1.067v1.067h1.067v-1.067zM26.134 22.656h-1.067v1.066h1.067v-1.066zM27.2 21.589h-1.067v1.067h1.067v-1.067zM25.067 21.589h-1.067v1.067h1.067v-1.067zM22.4 26.389h-1.067v1.067h1.067v-1.067zM22.4 28.523h-1.067v1.067h1.067v-1.067zM23.467 27.456h-1.067v1.067h1.067v-1.067zM21.334 27.456h-1.067v1.067h1.067v-1.067zM16 24.256h-1.066v1.067h1.066v-1.067zM16 26.389h-1.066v1.067h1.066v-1.067zM17.067 25.322h-1.067v1.067h1.067v-1.067zM14.934 25.322h-1.067v1.067h1.067v-1.067zM5.867 6.122h-1.066v1.066h1.066v-1.066zM5.867 8.256h-1.066v1.066h1.066v-1.066zM6.933 7.189h-1.067v1.067h1.066v-1.067zM4.8 7.189h-1.067v1.067h1.067v-1.067z"></path>
<path fill="#212121" d="M24.715 14.16c-0.28-0.376-0.699-0.636-1.179-0.703l-0.009-0.001c-0.076-0.012-0.164-0.018-0.254-0.018-0.411 0-0.789 0.139-1.090 0.373l0.004-0.003-1.253 0.96-1.898 1.417-1.358-0.541c2.421-1.086 4.113-3.508 4.113-6.32 0-3.823-3.122-6.934-6.961-6.934s-6.961 3.11-6.961 6.934c0 1.386 0.415 2.674 1.12 3.759l-2.768-0.024c-0.009 0-0.016 0.005-0.023 0.005-0.057 0.003-0.11 0.014-0.159 0.033l0.004-0.001c-0.013 0.005-0.026 0.007-0.038 0.013-0.006 0.003-0.013 0.003-0.019 0.006l-3.233 1.596c-0 0-0.001 0-0.001 0.001l-1.893 0.91c-0.024 0.011-0.045 0.023-0.065 0.036l0.001-0.001c-0.482 0.324-0.795 0.867-0.795 1.483 0 0.297 0.073 0.577 0.201 0.823l-0.005-0.010c0.22 0.424 0.592 0.742 1.043 0.885l0.013 0.003c0.161 0.053 0.345 0.083 0.537 0.083 0.308 0 0.598-0.078 0.851-0.216l-0.009 0.005 1.388-0.738 2.264-1.169 1.357-0.008-5.442 5.415c0 0.001-0.001 0.001-0.001 0.001l-1.339 1.333c-0.303 0.299-0.491 0.714-0.491 1.173 0 0.002 0 0.003 0 0.005v-0c0.002 0.919 0.748 1.664 1.667 1.664 0.001 0 0.002 0 0.002 0h-0c0.428 0 0.854-0.162 1.18-0.485l1.314-1.309 1.741-1.3 0.901 0.897-3.102 3.088c-0.303 0.299-0.491 0.714-0.491 1.173 0 0.001 0 0.003 0 0.004v-0c0 0.445 0.174 0.864 0.49 1.179 0.302 0.3 0.717 0.485 1.176 0.485 0.001 0 0.002 0 0.003 0h-0c0.427 0 0.855-0.162 1.18-0.485l4.488-4.472c0.007-0.006 0.016-0.009 0.022-0.016l5.166-5.658 3.471 0.494c0.025 0.004 0.050 0.006 0.075 0.006 0.064 0 0.127-0.016 0.187-0.038 0.017-0.006 0.032-0.015 0.049-0.023 0.019-0.010 0.039-0.015 0.058-0.027l3.213-2.133c0.012-0.008 0.018-0.021 0.029-0.030 0.013-0.010 0.029-0.014 0.041-0.026l1.271-1.191c0.348-0.326 0.564-0.787 0.564-1.3 0-0.4-0.132-0.769-0.355-1.066l0.003 0.005zM2.13 17.77c-0.098 0.054-0.215 0.086-0.34 0.086-0.078 0-0.153-0.013-0.224-0.036l0.005 0.001c-0.294-0.093-0.504-0.364-0.504-0.683 0-0.235 0.114-0.444 0.289-0.575l0.002-0.001 1.314-0.632 0.316 0.924 0.133 0.389-0.992 0.527zM5.627 15.942l-1.548 0.8-0.255-0.746-0.184-0.537 2.027-1.001-0.040 1.484zM20.727 9.322c0 0.918-0.219 1.785-0.599 2.56l-4.181-1.899c-0.044-0.575-0.342-1.072-0.782-1.384l-0.006-0.004 1.464-4.861c2.377 0.757 4.104 2.975 4.104 5.588zM8.938 9.322c0-3.235 2.644-5.867 5.894-5.867 0.253 0 0.5 0.022 0.745 0.053l-1.432 4.753c-0.019 0-0.037-0.006-0.057-0.006-0 0-0.001 0-0.001 0-1.032 0-1.869 0.835-1.872 1.867v0c0.003 1.031 0.84 1.867 1.872 1.867 0 0 0 0 0.001 0h-0c0.695 0 1.295-0.383 1.618-0.944l3.863 1.755c-1.075 1.447-2.795 2.39-4.737 2.39-3.25 0-5.894-2.632-5.894-5.867zM14.895 10.122c0 0.441-0.362 0.8-0.806 0.8-0 0-0.001 0-0.001 0-0.443 0-0.802-0.358-0.804-0.8v-0c0-0.441 0.361-0.8 0.806-0.8s0.806 0.359 0.806 0.8zM2.464 25.146c-0.11 0.109-0.261 0.176-0.428 0.176s-0.317-0.067-0.427-0.175l0 0c-0.109-0.108-0.176-0.257-0.176-0.422s0.067-0.314 0.176-0.422l0-0 0.962-0.959 0.852 0.848-0.959 0.954zM5.678 28.88c-0.11 0.109-0.261 0.176-0.428 0.176s-0.317-0.067-0.427-0.175l0 0c-0.109-0.108-0.176-0.257-0.176-0.422s0.067-0.314 0.176-0.422l0-0 0.963-0.959 0.852 0.848-0.96 0.955zM9.16 25.411l-0.001 0.001-1.765 1.76-0.852-0.848 1.765-1.757c0.040-0.040 0.065-0.088 0.090-0.136 0.007-0.014 0.020-0.026 0.026-0.040 0.016-0.041 0.019-0.085 0.026-0.128 0.003-0.025 0.014-0.048 0.014-0.073 0-0.035-0.013-0.070-0.020-0.105-0.006-0.032-0.006-0.064-0.019-0.096-0.025-0.053-0.055-0.098-0.092-0.138l0 0c-0.010-0.012-0.014-0.026-0.025-0.038h-0.001s0-0.001-0.001-0.002l-1.607-1.6c-0.017-0.017-0.039-0.024-0.058-0.038-0.025-0.021-0.054-0.040-0.084-0.056l-0.003-0.001c-0.026-0.012-0.058-0.023-0.090-0.031l-0.003-0.001c-0.030-0.009-0.065-0.017-0.101-0.020l-0.002-0c-0.007-0-0.015-0-0.023-0-0.026 0-0.051 0.002-0.075 0.005l0.003-0c-0.036 0.005-0.069 0.009-0.104 0.021s-0.064 0.027-0.094 0.045c-0.020 0.011-0.043 0.015-0.061 0.029l-1.774 1.324-0.901-0.897 2.399-2.386 4.36 4.289-0.928 0.919zM15.979 18.394c-0.016-0.002-0.030 0.004-0.046 0.003-0.008-0-0.017-0.001-0.027-0.001-0.031 0-0.062 0.003-0.092 0.008l0.003-0c-0.070 0.011-0.132 0.035-0.187 0.070l0.002-0.001c-0.030 0.018-0.057 0.037-0.083 0.061-0.013 0.011-0.028 0.016-0.040 0.029l-4.698 5.146-4.328-4.256 2.833-2.818c0.096-0.097 0.156-0.23 0.156-0.377 0-0.295-0.239-0.534-0.534-0.534-0.001 0-0.001 0-0.002 0h0l-2.219 0.013 0.028-1.607 3.104 0.027c1.264 1.297 3.027 2.101 4.978 2.101 0.001 0 0.002 0 0.003 0h-0c0.438 0 0.864-0.046 1.28-0.122 0.040 0.032 0.080 0.064 0.129 0.085l2.41 0.96 0.152 0.758 0.178 0.886-3.003-0.427zM20.020 18.572l-0.313-1.558 1.446-1.080 0.946 1.257-2.080 1.381zM23.773 15.741l-0.837 0.785-0.931-1.236 0.831-0.637c0.155-0.119 0.351-0.168 0.543-0.143 0.193 0.027 0.364 0.128 0.48 0.284 0.088 0.117 0.141 0.265 0.141 0.426 0 0.206-0.087 0.391-0.226 0.521l-0 0z"></path>
<path fill="#212121" d="M13.602 18.544l-2.143-2.134c-0.096-0.096-0.229-0.155-0.376-0.155s-0.28 0.059-0.376 0.155l-2.143 2.133c-0.097 0.097-0.156 0.23-0.156 0.378s0.060 0.281 0.156 0.378l-0-0 2.142 2.134c0.096 0.096 0.229 0.156 0.376 0.156s0.28-0.059 0.376-0.156v0l2.143-2.134c0.097-0.097 0.157-0.23 0.157-0.378s-0.060-0.281-0.157-0.378l-0-0zM11.083 20.303l-1.387-1.381 1.386-1.381 1.387 1.381-1.387 1.381zM17.164 5.071l-0.258 1.036c0.071 0.018 1.738 0.452 1.738 2.149h1.067c0-2.017-1.666-2.965-2.547-3.184zM19.711 9.322h-1.067v1.066h1.067v-1.066z"></path>
</symbol><symbol id="advantage-clock" viewBox="0 0 32 32">
<title>feature-clock</title>
<path fill="#212121" d="M31.296 15.301c-0.001-8.452-6.855-15.303-15.308-15.301s-15.303 6.855-15.301 15.308c0.002 6.788 4.422 12.543 10.541 14.545l0.108 0.031c0.061 0.019 0.123 0.029 0.187 0.029 0.12 0 0.238-0.032 0.342-0.094 0.135-0.080 0.236-0.207 0.283-0.357l3.865-12.25c1.054-0.004 1.906-0.859 1.906-1.913 0-1.056-0.856-1.913-1.913-1.913-0.303 0-0.59 0.071-0.845 0.196l0.011-0.005-5.106-5.107c-0.114-0.11-0.271-0.179-0.443-0.179-0.352 0-0.638 0.286-0.638 0.638 0 0.172 0.068 0.328 0.179 0.443l-0-0 5.103 5.109c-0.121 0.241-0.191 0.525-0.191 0.826 0 0.602 0.283 1.137 0.723 1.48l0.004 0.003-3.682 11.673c-7.278-2.681-11.004-10.754-8.324-18.032s10.754-11.004 18.032-8.323c7.278 2.681 11.004 10.754 8.323 18.032-1.345 3.581-4.003 6.406-7.374 7.938l-0.088 0.036-0.398-1.874c-0.063-0.291-0.318-0.506-0.624-0.506-0.164 0-0.313 0.062-0.426 0.163l0.001-0.001-3.837 3.426c-0.132 0.117-0.214 0.287-0.214 0.477 0 0.283 0.185 0.524 0.441 0.606l0.005 0.001 4.899 1.563c0.058 0.020 0.126 0.031 0.196 0.031 0.352 0 0.637-0.285 0.637-0.637 0-0.047-0.005-0.093-0.015-0.138l0.001 0.004-0.391-1.839c5.528-2.374 9.329-7.772 9.329-14.057 0-0.011 0-0.023-0-0.034v0.002zM15.992 14.664c0.352 0 0.638 0.286 0.638 0.638s-0.285 0.638-0.638 0.638v0c-0.352 0-0.638-0.286-0.638-0.638s0.286-0.638 0.638-0.638v0zM18.092 29.528l2.184-1.948 0.603 2.84-2.787-0.892z"></path>
<path fill="#2196f3" d="M15.354 3.185v1.275c0 0.352 0.286 0.638 0.638 0.638s0.638-0.285 0.638-0.638v0-1.275c0-0.352-0.285-0.638-0.638-0.638s-0.638 0.285-0.638 0.638v0zM3.876 14.664c-0.352 0-0.638 0.286-0.638 0.638s0.285 0.638 0.638 0.638h1.275c0.352 0 0.638-0.286 0.638-0.638s-0.285-0.638-0.638-0.638h-1.275zM28.108 15.939c0.352 0 0.638-0.286 0.638-0.638s-0.285-0.638-0.638-0.638h-1.275c-0.352 0-0.638 0.286-0.638 0.638s0.285 0.638 0.638 0.638h1.275z"></path>
</symbol><symbol id="advantage-diagram" viewBox="0 0 32 32">
<title>feature-diagram</title>
<path fill="#2196f3" d="M14.926 14.965h1.066v4.798h-1.066v-4.798zM19.19 17.097h1.066v2.665h-1.066v-2.665zM10.661 18.696h1.066v1.066h-1.066v-1.066zM7.463 18.163h1.066v1.599h-1.066v-1.599z"></path>
<path fill="#212121" d="M1.599 28.291h25.586c0 0 0 0 0 0 0.883 0 1.599-0.716 1.599-1.599v0-2.132c0-0.883-0.716-1.599-1.599-1.599v0h-0.533v-13.294l3.028-2.868c0.207 0.104 0.452 0.166 0.711 0.166 0.888 0 1.608-0.72 1.608-1.608s-0.72-1.608-1.608-1.608c-0.888 0-1.608 0.72-1.608 1.608 0 0.247 0.056 0.481 0.155 0.69l-0.004-0.010-2.281 2.162v-1.23c0-0.883-0.716-1.599-1.599-1.599v0h-21.323c-0.883 0-1.599 0.716-1.599 1.599v0 15.992h-0.533c-0.883 0-1.599 0.716-1.599 1.599v0 2.132c0 0.883 0.716 1.599 1.599 1.599v0zM30.384 4.837c0.294 0 0.533 0.239 0.533 0.533s-0.239 0.533-0.533 0.533v0c-0.294 0-0.533-0.239-0.533-0.533s0.239-0.533 0.533-0.533v0zM3.198 6.969c0-0.294 0.239-0.533 0.533-0.533h21.323c0.294 0 0.533 0.239 0.533 0.533v2.239l-1.066 1.013v-2.185c0-0.295-0.239-0.534-0.534-0.534h-19.189c-0.294 0-0.534 0.239-0.534 0.533v13.327c0 0.294 0.239 0.533 0.534 0.533h19.189c0.295 0 0.534-0.239 0.534-0.533v-9.675l1.066-1.010v12.283h-22.389v-15.991zM7.996 13.899c-0.001 0-0.003 0-0.005 0-0.883 0-1.599 0.716-1.599 1.599s0.716 1.599 1.599 1.599c0.432 0 0.824-0.172 1.112-0.45l-0 0 1.853 0.93c0.215 0.107 0.476 0.057 0.636-0.122l3.939-4.432 3.872 2.902c0.208 0.155 0.498 0.139 0.686-0.039l3.365-3.188v8.131h-18.123v-12.261h18.123v2.661l-3.771 3.572-3.904-2.927c-0.088-0.067-0.2-0.107-0.32-0.107-0.158 0-0.3 0.069-0.398 0.178l-0 0.001-3.993 4.493-1.493-0.746c0.011-0.064 0.017-0.128 0.020-0.193 0-0.883-0.716-1.599-1.599-1.599v0zM8.529 15.498c0 0.294-0.239 0.533-0.533 0.533s-0.533-0.239-0.533-0.533v0c0-0.294 0.239-0.533 0.533-0.533s0.533 0.239 0.533 0.533v0zM11.727 24.026h5.33v0.533c0 0.294-0.238 0.533-0.533 0.533h-4.265c-0.294 0-0.533-0.239-0.533-0.533v0-0.533zM1.067 24.56c0-0.294 0.238-0.533 0.533-0.533h9.062v0.533c0 0.883 0.716 1.599 1.599 1.599v0h4.265c0.883 0 1.599-0.716 1.599-1.599v0-0.533h9.062c0.294 0 0.533 0.239 0.533 0.533v2.132c0 0.294-0.239 0.533-0.533 0.533h-25.586c-0 0-0 0-0 0-0.294 0-0.533-0.239-0.533-0.533 0 0 0 0 0 0v0-2.132z"></path>
</symbol><symbol id="contact-facebook" viewBox="0 0 32 32">
<path d="M19.887 7.817h2.238V3.921a27.813 27.813 0 0 0-3.144-.171h-.12.006c-3.226 0-5.435 2.029-5.435 5.758v3.43H9.875v4.355h3.557v10.958h4.363V17.295h3.414l.543-4.355h-3.958V9.937c0-1.258.339-2.119 2.093-2.119z"></path>
</symbol><symbol id="contact-github" viewBox="0 0 32 32">
<path d="M16 3.395c-7.137 0-12.924 5.786-12.924 12.924 0 5.71 3.703 10.555 8.839 12.263.646.119.884-.28.884-.622 0-.308-.012-1.326-.018-2.406-3.596.782-4.354-1.525-4.354-1.525-.588-1.494-1.435-1.891-1.435-1.891-1.173-.802.089-.786.089-.786 1.297.091 1.981 1.332 1.981 1.332 1.153 1.976 3.023 1.405 3.761 1.074.116-.835.451-1.405.821-1.729-2.871-.326-5.889-1.435-5.889-6.387 0-1.411.505-2.564 1.332-3.469-.134-.325-.577-1.64.125-3.42 0 0 1.086-.347 3.555 1.325a12.362 12.362 0 0 1 3.235-.435c1.098.005 2.204.149 3.237.435 2.467-1.672 3.55-1.325 3.55-1.325.703 1.78.261 3.095.127 3.42.829.905 1.331 2.058 1.331 3.469 0 4.964-3.023 6.056-5.901 6.377.464.401.877 1.187.877 2.393 0 1.729-.015 3.121-.015 3.547 0 .344.233.747.888.62 5.133-1.711 8.831-6.553 8.831-12.262 0-7.138-5.787-12.924-12.924-12.924z"></path>
</symbol><symbol id="contact-instagram" viewBox="0 0 32 32">
<path d="M28.185 10.954c-.057-1.302-.267-2.196-.568-2.972a6.01 6.01 0 0 0-1.416-2.172l-.001-.001a6.065 6.065 0 0 0-2.127-1.399l-.041-.014c-.78-.302-1.67-.511-2.972-.568-1.311-.063-1.727-.077-5.055-.077-3.326 0-3.742.015-5.049.072-1.301.057-2.196.267-2.971.568a6.027 6.027 0 0 0-2.174 1.416l-.001.001a6.033 6.033 0 0 0-1.397 2.127l-.014.041c-.302.78-.512 1.67-.57 2.972-.063 1.311-.077 1.727-.077 5.055 0 3.326.015 3.742.072 5.049.057 1.302.268 2.196.57 2.972.326.85.808 1.575 1.416 2.172l.001.001a6.026 6.026 0 0 0 2.168 1.411c.78.302 1.671.513 2.972.57 1.307.057 1.723.072 5.049.072 3.327 0 3.744-.015 5.049-.072 1.302-.057 2.196-.267 2.972-.568a6.311 6.311 0 0 0 3.571-3.543l.015-.042c.302-.78.512-1.671.57-2.972.057-1.307.071-1.723.071-5.049s-.005-3.742-.061-5.049zM25.98 20.957c-.054 1.197-.255 1.842-.421 2.274a4.092 4.092 0 0 1-2.3 2.315l-.028.009c-.429.168-1.08.369-2.272.421-1.292.057-1.68.072-4.949.072s-3.661-.015-4.949-.072c-1.197-.053-1.842-.253-2.274-.421a3.801 3.801 0 0 1-1.406-.913l-.001-.001a3.822 3.822 0 0 1-.907-1.38l-.008-.026c-.167-.431-.367-1.082-.42-2.274-.057-1.292-.072-1.68-.072-4.949s.015-3.663.072-4.949c.053-1.197.253-1.842.42-2.274a3.741 3.741 0 0 1 .917-1.406l.002-.002a3.803 3.803 0 0 1 1.383-.905l.026-.008c.429-.168 1.08-.367 2.272-.421 1.292-.057 1.68-.071 4.949-.071 3.273 0 3.661.015 4.949.071 1.197.053 1.842.253 2.274.421a3.757 3.757 0 0 1 1.406.914c.407.398.718.876.915 1.409.167.429.367 1.08.42 2.272.057 1.292.072 1.68.072 4.949s-.015 3.651-.072 4.944z"></path>
<path d="M16.005 9.709a6.295 6.295 0 0 0-6.292 6.294 6.295 6.295 0 0 0 12.588.006v-.007a6.295 6.295 0 0 0-6.294-6.294zm0 10.375a4.082 4.082 0 1 1 .001-8.166h.001a4.083 4.083 0 1 1 0 8.168zm8.013-10.623a1.47 1.47 0 1 1-2.94 0 1.47 1.47 0 1 1 2.94 0z"></path>
</symbol><symbol id="contact-linkedin" viewBox="0 2 32 32">
<path d="M13.119 12.399h3.987v2.043h.057c.555-.995 1.912-2.043 3.936-2.043 4.208 0 4.986 2.62 4.986 6.027v6.939h-4.156v-6.152c0-1.467-.03-3.354-2.162-3.354-2.165 0-2.494 1.598-2.494 3.248v6.258h-4.154V12.399zM5.915 12.399h4.322v12.966H5.915V12.399zM10.237 8.797a2.161 2.161 0 1 1-4.322 0 2.161 2.161 0 0 1 4.322 0z"></path>
</symbol><symbol id="contact-mail" viewBox="0 0 30 30">
<path d="M26.071 7.776H5.929a2.495 2.495 0 0 0-2.492 2.492v11.465a2.495 2.495 0 0 0 2.492 2.492h20.142a2.495 2.495 0 0 0 2.492-2.492V10.268a2.495 2.495 0 0 0-2.492-2.492zm.831 2.492v11.465a.814.814 0 0 1-.091.361l-5.872-5.872 5.962-5.962.001.009zM5.098 21.732V10.267l.001-.009 5.962 5.962-5.872 5.872a.814.814 0 0 1-.091-.361zm11.159-3.179a.372.372 0 0 1-.513 0L6.628 9.437h18.745l-9.116 9.116zm-4.021-1.158 2.333 2.333c.382.382.891.593 1.431.593s1.048-.21 1.431-.593l2.333-2.333 5.167 5.168H7.069l5.168-5.168z"></path>
</symbol><symbol id="contact-map" viewBox="0 0 32 32">
<path d="M16 3.75c-4.232 0-7.661 3.415-7.661 7.646C8.339 18.711 16 28.25 16 28.25s7.661-9.541 7.661-16.854c0-4.229-3.429-7.646-7.661-7.646zm0 11.876a4.137 4.137 0 1 1 0-8.273 4.137 4.137 0 0 1 0 8.273z"></path>
</symbol><symbol id="contact-phone" viewBox="0 0 36 36">
<path d="M21.716 18.45c-1.633 1.633-1.633 3.267-3.267 3.267s-3.267-1.633-4.9-3.267-3.267-3.267-3.267-4.9 1.633-1.633 3.267-3.267-3.267-6.533-4.9-6.533-4.9 4.9-4.9 4.9c0 3.267 3.356 9.889 6.533 13.067s9.8 6.533 13.067 6.533c0 0 4.9-3.267 4.9-4.9s-4.9-6.533-6.533-4.9z"></path>
</symbol><symbol id="contact-telegram" viewBox="1 0 32 32">
<path d="M25.843 5.623a2.678 2.678 0 0 0-.83.198h-.003c-.253.101-1.458.607-3.289 1.375L15.158 9.96c-4.709 1.983-9.338 3.935-9.338 3.935l.055-.021s-.319.105-.652.333a1.813 1.813 0 0 0-.521.504c-.164.24-.295.607-.246.987.08.642.496 1.027.795 1.239.302.215.59.316.59.316h.007l4.341 1.463c.195.625 1.323 4.334 1.594 5.188.16.511.316.83.511 1.073.094.124.204.229.337.312.069.04.142.072.219.094l-.045-.011c.014.003.024.014.034.018.036.01.06.013.105.02.687.208 1.239-.219 1.239-.219l.031-.025 2.563-2.333 4.296 3.296.098.042c.895.393 1.802.174 2.281-.212.483-.389.67-.885.67-.885l.031-.08 3.319-17.006c.094-.42.118-.813.014-1.194a1.605 1.605 0 0 0-.695-.931 1.667 1.667 0 0 0-.949-.24zm-.09 1.823c-.003.056.007.05-.018.158v.01l-3.288 16.829c-.014.024-.038.076-.104.129-.069.055-.124.09-.413-.025l-5.254-4.028-3.174 2.893.667-4.259 8.584-8.001c.354-.329.235-.398.235-.398.025-.404-.534-.118-.534-.118L11.63 17.342l-.003-.018-5.202-1.753a.306.306 0 0 0 .027-.011l.028-.014.028-.01 9.341-3.935c2.358-.993 4.733-1.993 6.56-2.765 1.084-.456 2.168-.909 3.254-1.36.073-.028.038-.028.091-.028v-.001z"></path>
</symbol><symbol id="contact-twitter" viewBox="0 0 32 32">
<path d="M27.387 8.938a9.194 9.194 0 0 1-2.682.734 4.693 4.693 0 0 0 2.054-2.584 9.381 9.381 0 0 1-2.967 1.134 4.673 4.673 0 0 0-3.411-1.472 4.67 4.67 0 0 0-4.55 5.733A13.26 13.26 0 0 1 6.203 7.6a4.664 4.664 0 0 0-.631 2.348c0 1.619.823 3.05 2.077 3.887a4.662 4.662 0 0 1-2.117-.583v.058a4.67 4.67 0 0 0 3.749 4.58 4.667 4.667 0 0 1-2.112.079 4.689 4.689 0 0 0 4.362 3.247 9.37 9.37 0 0 1-6.919 1.935 13.212 13.212 0 0 0 7.165 2.099c8.592 0 13.292-7.12 13.292-13.292 0-.204-.004-.405-.013-.605a9.374 9.374 0 0 0 2.33-2.415z"></path>
</symbol><symbol id="contact-whatsapp" viewBox="0 0 32 32">
<path d="M24.635 7.31a12.047 12.047 0 0 0-8.59-3.56C9.355 3.75 3.91 9.195 3.91 15.89c0 2.139.56 4.23 1.622 6.068l-1.723 6.293 6.436-1.689a12.146 12.146 0 0 0 5.8 1.478h.005c6.69 0 12.14-5.446 12.14-12.14 0-3.245-1.263-6.293-3.556-8.59zm-8.584 18.681c-1.814 0-3.589-.488-5.14-1.406l-.368-.221-3.818 1 1.019-3.723-.24-.383a10.024 10.024 0 0 1-1.546-5.369c0-5.565 4.526-10.092 10.097-10.092 2.694 0 5.23 1.053 7.135 2.957a10.034 10.034 0 0 1 2.952 7.139c-.005 5.57-4.532 10.097-10.092 10.097zm5.531-7.56c-.302-.153-1.795-.885-2.072-.986s-.479-.153-.684.153c-.201.302-.785.986-.962 1.191-.177.201-.354.23-.655.077s-1.282-.474-2.441-1.508c-.9-.804-1.512-1.799-1.689-2.101s-.019-.469.134-.617c.139-.134.302-.354.455-.531s.201-.302.302-.507c.1-.201.053-.378-.024-.531s-.684-1.646-.933-2.254c-.244-.593-.498-.512-.684-.521-.177-.009-.378-.009-.579-.009s-.531.077-.809.378c-.278.302-1.062 1.038-1.062 2.531s1.086 2.933 1.24 3.139c.153.201 2.139 3.268 5.183 4.579.723.311 1.287.498 1.727.641.727.23 1.388.196 1.909.119.583-.087 1.795-.732 2.048-1.44s.253-1.316.177-1.44c-.072-.134-.273-.211-.579-.364z"></path>
</symbol><symbol id="form-mail" viewBox="0 0 32 32">
<path d="M25.056 6.944H6.944a2.262 2.262 0 0 0-2.253 2.264L4.68 22.792a2.27 2.27 0 0 0 2.264 2.264h18.112a2.27 2.27 0 0 0 2.264-2.264V9.208a2.27 2.27 0 0 0-2.264-2.264zm-.453 4.811L16.6 16.758a1.147 1.147 0 0 1-1.2 0l-8.003-5.003a.962.962 0 1 1 1.019-1.63L16 14.868l7.584-4.743a.962.962 0 1 1 1.019 1.63z"></path>
</symbol><symbol id="form-menu" viewBox="0 0 32 32">
<path d="M5.993 11.552V9.328h20.015v2.224H5.993zm0 5.56h20.015v-2.224H5.993v2.224zm0 5.56h20.015v-2.224H5.993v2.224z"></path>
</symbol><symbol id="form-name" viewBox="0 0 32 32">
<path d="M16 16c3.315 0 6-2.685 6-6s-2.685-6-6-6-6 2.685-6 6 2.685 6 6 6zm0 3c-4.005 0-12 2.01-12 6v1.5c0 .825.675 1.5 1.5 1.5h21c.825 0 1.5-.675 1.5-1.5V25c0-3.99-7.995-6-12-6z"></path>
</symbol><symbol id="form-phone" viewBox="0 0 32 32">
<path d="m23.639 19.457-2.687-.307a2.106 2.106 0 0 0-1.735.603l-1.946 1.946a15.912 15.912 0 0 1-6.97-6.97l1.956-1.957c.455-.455.677-1.09.603-1.734l-.307-2.665a2.117 2.117 0 0 0-2.105-1.872h-1.83c-1.195 0-2.189.994-2.115 2.189.561 9.033 7.785 16.246 16.807 16.807 1.195.074 2.189-.92 2.189-2.116v-1.829a2.097 2.097 0 0 0-1.861-2.094z"></path>
</symbol><symbol id="modal-burger" viewBox="0 0 32 32">
<path d="M8 14.6667V12H32V14.6667H8ZM8 21.3333H32V18.6667H8V21.3333ZM8 28H32V25.3333H8V28Z"></path>
</symbol><symbol id="modal-cross" viewBox="0 0 32 32">
<path d="M29.6667 12.88L27.7867 11L20.3333 18.4533L12.88 11L11 12.88L18.4533 20.3333L11 27.7867L12.88 29.6667L20.3333 22.2133L27.7867 29.6667L29.6667 27.7867L22.2133 20.3333L29.6667 12.88Z"></path>
</symbol></svg>