<svg xmlns="http://www.w3.org/2000/svg" viewBox="0 0 32 32">
<path d="M16 3.395c-7.137 0-12.924 5.786-12.924 12.924 0 5.71 3.703 10.555 8.839 12.263.646.119.884-.28.884-.622 0-.308-.012-1.326-.018-2.406-3.596.782-4.354-1.525-4.354-1.525-.588-1.494-1.435-1.891-1.435-1.891-1.173-.802.089-.786.089-.786 1.297.091 1.981 1.332 1.981 1.332 1.153 1.976 3.023 1.405 3.761 1.074.116-.835.451-1.405.821-1.729-2.871-.326-5.889-1.435-5.889-6.387 0-1.411.505-2.564 1.332-3.469-.134-.325-.577-1.64.125-3.42 0 0 1.086-.347 3.555 1.325a12.362 12.362 0 0 1 3.235-.435c1.098.005 2.204.149 3.237.435 2.467-1.672 3.55-1.325 3.55-1.325.703 1.78.261 3.095.127 3.42.829.905 1.331 2.058 1.331 3.469 0 4.964-3.023 6.056-5.901 6.377.464.401.877 1.187.877 2.393 0 1.729-.015 3.121-.015 3.547 0 .344.233.747.888.62 5.133-1.711 8.831-6.553 8.831-12.262 0-7.138-5.787-12.924-12.924-12.924z"/>
</svg>