<svg  xmlns="http://www.w3.org/2000/svg" viewBox="0 0 30 30">
<path d="M26.071 7.776H5.929a2.495 2.495 0 0 0-2.492 2.492v11.465a2.495 2.495 0 0 0 2.492 2.492h20.142a2.495 2.495 0 0 0 2.492-2.492V10.268a2.495 2.495 0 0 0-2.492-2.492zm.831 2.492v11.465a.814.814 0 0 1-.091.361l-5.872-5.872 5.962-5.962.001.009zM5.098 21.732V10.267l.001-.009 5.962 5.962-5.872 5.872a.814.814 0 0 1-.091-.361zm11.159-3.179a.372.372 0 0 1-.513 0L6.628 9.437h18.745l-9.116 9.116zm-4.021-1.158 2.333 2.333c.382.382.891.593 1.431.593s1.048-.21 1.431-.593l2.333-2.333 5.167 5.168H7.069l5.168-5.168z"/>
</svg>