<svg xmlns="http://www.w3.org/2000/svg" viewBox="0 0 32 32">
<path d="M24.635 7.31a12.047 12.047 0 0 0-8.59-3.56C9.355 3.75 3.91 9.195 3.91 15.89c0 2.139.56 4.23 1.622 6.068l-1.723 6.293 6.436-1.689a12.146 12.146 0 0 0 5.8 1.478h.005c6.69 0 12.14-5.446 12.14-12.14 0-3.245-1.263-6.293-3.556-8.59zm-8.584 18.681c-1.814 0-3.589-.488-5.14-1.406l-.368-.221-3.818 1 1.019-3.723-.24-.383a10.024 10.024 0 0 1-1.546-5.369c0-5.565 4.526-10.092 10.097-10.092 2.694 0 5.23 1.053 7.135 2.957a10.034 10.034 0 0 1 2.952 7.139c-.005 5.57-4.532 10.097-10.092 10.097zm5.531-7.56c-.302-.153-1.795-.885-2.072-.986s-.479-.153-.684.153c-.201.302-.785.986-.962 1.191-.177.201-.354.23-.655.077s-1.282-.474-2.441-1.508c-.9-.804-1.512-1.799-1.689-2.101s-.019-.469.134-.617c.139-.134.302-.354.455-.531s.201-.302.302-.507c.1-.201.053-.378-.024-.531s-.684-1.646-.933-2.254c-.244-.593-.498-.512-.684-.521-.177-.009-.378-.009-.579-.009s-.531.077-.809.378c-.278.302-1.062 1.038-1.062 2.531s1.086 2.933 1.24 3.139c.153.201 2.139 3.268 5.183 4.579.723.311 1.287.498 1.727.641.727.23 1.388.196 1.909.119.583-.087 1.795-.732 2.048-1.44s.253-1.316.177-1.44c-.072-.134-.273-.211-.579-.364z"/>
</svg>