<svg xmlns="http://www.w3.org/2000/svg" viewBox="0 0 32 32">
<path d="M27.387 8.938a9.194 9.194 0 0 1-2.682.734 4.693 4.693 0 0 0 2.054-2.584 9.381 9.381 0 0 1-2.967 1.134 4.673 4.673 0 0 0-3.411-1.472 4.67 4.67 0 0 0-4.55 5.733A13.26 13.26 0 0 1 6.203 7.6a4.664 4.664 0 0 0-.631 2.348c0 1.619.823 3.05 2.077 3.887a4.662 4.662 0 0 1-2.117-.583v.058a4.67 4.67 0 0 0 3.749 4.58 4.667 4.667 0 0 1-2.112.079 4.689 4.689 0 0 0 4.362 3.247 9.37 9.37 0 0 1-6.919 1.935 13.212 13.212 0 0 0 7.165 2.099c8.592 0 13.292-7.12 13.292-13.292 0-.204-.004-.405-.013-.605a9.374 9.374 0 0 0 2.33-2.415z"/>
</svg>