<svg xmlns="http://www.w3.org/2000/svg" viewBox="1 0 32 32">
<path d="M25.843 5.623a2.678 2.678 0 0 0-.83.198h-.003c-.253.101-1.458.607-3.289 1.375L15.158 9.96c-4.709 1.983-9.338 3.935-9.338 3.935l.055-.021s-.319.105-.652.333a1.813 1.813 0 0 0-.521.504c-.164.24-.295.607-.246.987.08.642.496 1.027.795 1.239.302.215.59.316.59.316h.007l4.341 1.463c.195.625 1.323 4.334 1.594 5.188.16.511.316.83.511 1.073.094.124.204.229.337.312.069.04.142.072.219.094l-.045-.011c.014.003.024.014.034.018.036.01.06.013.105.02.687.208 1.239-.219 1.239-.219l.031-.025 2.563-2.333 4.296 3.296.098.042c.895.393 1.802.174 2.281-.212.483-.389.67-.885.67-.885l.031-.08 3.319-17.006c.094-.42.118-.813.014-1.194a1.605 1.605 0 0 0-.695-.931 1.667 1.667 0 0 0-.949-.24zm-.09 1.823c-.003.056.007.05-.018.158v.01l-3.288 16.829c-.014.024-.038.076-.104.129-.069.055-.124.09-.413-.025l-5.254-4.028-3.174 2.893.667-4.259 8.584-8.001c.354-.329.235-.398.235-.398.025-.404-.534-.118-.534-.118L11.63 17.342l-.003-.018-5.202-1.753a.306.306 0 0 0 .027-.011l.028-.014.028-.01 9.341-3.935c2.358-.993 4.733-1.993 6.56-2.765 1.084-.456 2.168-.909 3.254-1.36.073-.028.038-.028.091-.028v-.001z"/>
</svg>