<svg xmlns="http://www.w3.org/2000/svg" viewBox="0 0 32 32">
<path d="M28.185 10.954c-.057-1.302-.267-2.196-.568-2.972a6.01 6.01 0 0 0-1.416-2.172l-.001-.001a6.065 6.065 0 0 0-2.127-1.399l-.041-.014c-.78-.302-1.67-.511-2.972-.568-1.311-.063-1.727-.077-5.055-.077-3.326 0-3.742.015-5.049.072-1.301.057-2.196.267-2.971.568a6.027 6.027 0 0 0-2.174 1.416l-.001.001a6.033 6.033 0 0 0-1.397 2.127l-.014.041c-.302.78-.512 1.67-.57 2.972-.063 1.311-.077 1.727-.077 5.055 0 3.326.015 3.742.072 5.049.057 1.302.268 2.196.57 2.972.326.85.808 1.575 1.416 2.172l.001.001a6.026 6.026 0 0 0 2.168 1.411c.78.302 1.671.513 2.972.57 1.307.057 1.723.072 5.049.072 3.327 0 3.744-.015 5.049-.072 1.302-.057 2.196-.267 2.972-.568a6.311 6.311 0 0 0 3.571-3.543l.015-.042c.302-.78.512-1.671.57-2.972.057-1.307.071-1.723.071-5.049s-.005-3.742-.061-5.049zM25.98 20.957c-.054 1.197-.255 1.842-.421 2.274a4.092 4.092 0 0 1-2.3 2.315l-.028.009c-.429.168-1.08.369-2.272.421-1.292.057-1.68.072-4.949.072s-3.661-.015-4.949-.072c-1.197-.053-1.842-.253-2.274-.421a3.801 3.801 0 0 1-1.406-.913l-.001-.001a3.822 3.822 0 0 1-.907-1.38l-.008-.026c-.167-.431-.367-1.082-.42-2.274-.057-1.292-.072-1.68-.072-4.949s.015-3.663.072-4.949c.053-1.197.253-1.842.42-2.274a3.741 3.741 0 0 1 .917-1.406l.002-.002a3.803 3.803 0 0 1 1.383-.905l.026-.008c.429-.168 1.08-.367 2.272-.421 1.292-.057 1.68-.071 4.949-.071 3.273 0 3.661.015 4.949.071 1.197.053 1.842.253 2.274.421a3.757 3.757 0 0 1 1.406.914c.407.398.718.876.915 1.409.167.429.367 1.08.42 2.272.057 1.292.072 1.68.072 4.949s-.015 3.651-.072 4.944z"/>
<path d="M16.005 9.709a6.295 6.295 0 0 0-6.292 6.294 6.295 6.295 0 0 0 12.588.006v-.007a6.295 6.295 0 0 0-6.294-6.294zm0 10.375a4.082 4.082 0 1 1 .001-8.166h.001a4.083 4.083 0 1 1 0 8.168zm8.013-10.623a1.47 1.47 0 1 1-2.94 0 1.47 1.47 0 1 1 2.94 0z"/>
</svg>